<svg width="969" height="483" viewBox="0 0 969 483" fill="none" xmlns="http://www.w3.org/2000/svg">
<path d="M0.200684 397.267V474.18H345.443V394.615H110.889L197.332 277.92H88.2244L0.200684 397.267Z" fill="white"/>
<path d="M343.258 77.4005V0.0700684H6.75598V80.0671H232.671L147.887 196.329H256.368L343.258 77.4005Z" fill="white"/>
<path d="M879.836 310.691C879.836 368.832 846.177 403.717 784.644 403.717C723.112 403.717 689.453 368.832 689.453 310.691V277.92H601.098V308.048C601.098 415.873 669.468 483 784.644 483C899.821 483 968.191 415.873 968.191 308.048V277.92H879.836V310.691Z" fill="white"/>
<path d="M968.191 0.0700684H880.788V196.329H968.191V0.0700684Z" fill="white"/>
<path d="M688.501 0.0700684H601.098V196.329H688.501V0.0700684Z" fill="white"/>
</svg>
