<svg width="1446" height="702" viewBox="0 0 1446 702" fill="none" xmlns="http://www.w3.org/2000/svg">
<path d="M0.80896 577.447V689.174H516.25V573.595H166.065L295.122 404.078H132.227L0.80896 577.447Z" fill="#303030"/>
<path d="M512.987 112.793V0.458496H10.5956V116.666H347.882L221.301 285.555H383.262L512.987 112.793Z" fill="#303030"/>
<path d="M1314.09 451.682C1314.09 536.141 1263.84 586.816 1171.97 586.816C1080.1 586.816 1029.85 536.141 1029.85 451.682V404.078H897.937V447.843C897.937 604.476 1000.01 701.988 1171.97 701.988C1343.93 701.988 1446 604.476 1446 447.843V404.078H1314.09V451.682Z" fill="#303030"/>
<path d="M1446 0.458496H1315.51V285.555H1446V0.458496Z" fill="#303030"/>
<path d="M1028.43 0.458496H897.937V285.555H1028.43V0.458496Z" fill="#303030"/>
</svg>
